<svg width="80" height="80" viewBox="0 0 80 80" fill="none" xmlns="http://www.w3.org/2000/svg">
<path d="M41.875 51.875C47.3978 51.875 51.875 47.3978 51.875 41.875C51.875 36.3522 47.3978 31.875 41.875 31.875C36.3522 31.875 31.875 36.3522 31.875 41.875C31.875 47.3978 36.3522 51.875 41.875 51.875Z" fill="#A1B0FF"/>
<path d="M40 50.625C45.868 50.625 50.625 45.868 50.625 40C50.625 34.132 45.868 29.375 40 29.375C34.132 29.375 29.375 34.132 29.375 40C29.375 45.868 34.132 50.625 40 50.625Z" stroke="black" stroke-width="1.25"/>
<path d="M29.3923 50.6066C19.6292 40.8435 16.4634 28.1802 22.3213 22.3223C28.1791 16.4644 40.8424 19.6303 50.6055 29.3934C60.3686 39.1565 63.5345 51.8198 57.6766 57.6776C51.8187 63.5355 39.1554 60.3697 29.3923 50.6066Z" stroke="black" stroke-width="1.25"/>
<path d="M50.6057 50.6066C60.3688 40.8435 63.5346 28.1802 57.6768 22.3223C51.8189 16.4644 39.1556 19.6303 29.3925 29.3934C19.6294 39.1565 16.4636 51.8198 22.3214 57.6776C28.1793 63.5355 40.8426 60.3697 50.6057 50.6066Z" stroke="black" stroke-width="1.25"/>
<path d="M40 45C42.7614 45 45 42.7614 45 40C45 37.2386 42.7614 35 40 35C37.2386 35 35 37.2386 35 40C35 42.7614 37.2386 45 40 45Z" stroke="black" stroke-width="1.25"/>
</svg>
