<svg width="48" height="48" viewBox="0 0 48 48" fill="none" xmlns="http://www.w3.org/2000/svg">
<path d="M2 13V8C2 6.93913 2.42143 5.92172 3.17157 5.17157C3.92172 4.42143 4.93913 4 6 4H42C43.0609 4 44.0783 4.42143 44.8284 5.17157C45.5786 5.92172 46 6.93913 46 8V30C46 31.0609 45.5786 32.0783 44.8284 32.8284C44.0783 33.5786 43.0609 34 42 34H26L12 44V34H6C4.93913 34 3.92172 33.5786 3.17157 32.8284C2.42143 32.0783 2 31.0609 2 30V19H26" stroke="#272E35" stroke-width="3" stroke-miterlimit="10" stroke-linecap="round" stroke-linejoin="round"/>
<path d="M18 11L26 19L18 27" stroke="#272E35" stroke-width="3" stroke-miterlimit="10" stroke-linecap="round" stroke-linejoin="round"/>
</svg>
