<svg width="48" height="48" viewBox="0 0 48 48" fill="none" xmlns="http://www.w3.org/2000/svg">
<path d="M8 12V19" stroke="#272E35" stroke-width="3" stroke-miterlimit="10" stroke-linecap="round" stroke-linejoin="round"/>
<path d="M13 24H19" stroke="#272E35" stroke-width="3" stroke-miterlimit="10" stroke-linecap="round" stroke-linejoin="round"/>
<path d="M27.4258 27.6404L36.573 37.3593" stroke="#272E35" stroke-width="3" stroke-miterlimit="10" stroke-linecap="round" stroke-linejoin="round"/>
<path d="M35 41H29" stroke="#272E35" stroke-width="3" stroke-miterlimit="10" stroke-linecap="round" stroke-linejoin="round"/>
<path d="M8 12C10.7614 12 13 9.76142 13 7C13 4.23858 10.7614 2 8 2C5.23858 2 3 4.23858 3 7C3 9.76142 5.23858 12 8 12Z" stroke="#272E35" stroke-width="3" stroke-miterlimit="10" stroke-linecap="round" stroke-linejoin="round"/>
<path d="M24 12C26.7614 12 29 9.76142 29 7C29 4.23858 26.7614 2 24 2C21.2386 2 19 4.23858 19 7C19 9.76142 21.2386 12 24 12Z" stroke="#272E35" stroke-width="3" stroke-miterlimit="10" stroke-linecap="round" stroke-linejoin="round"/>
<path d="M40 12C42.7614 12 45 9.76142 45 7C45 4.23858 42.7614 2 40 2C37.2386 2 35 4.23858 35 7C35 9.76142 37.2386 12 40 12Z" stroke="#272E35" stroke-width="3" stroke-miterlimit="10" stroke-linecap="round" stroke-linejoin="round"/>
<path d="M8 29C10.7614 29 13 26.7614 13 24C13 21.2386 10.7614 19 8 19C5.23858 19 3 21.2386 3 24C3 26.7614 5.23858 29 8 29Z" stroke="#272E35" stroke-width="3" stroke-miterlimit="10" stroke-linecap="round" stroke-linejoin="round"/>
<path d="M24 29C26.7614 29 29 26.7614 29 24C29 21.2386 26.7614 19 24 19C21.2386 19 19 21.2386 19 24C19 26.7614 21.2386 29 24 29Z" stroke="#272E35" stroke-width="3" stroke-miterlimit="10" stroke-linecap="round" stroke-linejoin="round"/>
<path d="M40 29C42.7614 29 45 26.7614 45 24C45 21.2386 42.7614 19 40 19C37.2386 19 35 21.2386 35 24C35 26.7614 37.2386 29 40 29Z" stroke="#272E35" stroke-width="3" stroke-miterlimit="10" stroke-linecap="round" stroke-linejoin="round"/>
<path d="M8 46C10.7614 46 13 43.7614 13 41C13 38.2386 10.7614 36 8 36C5.23858 36 3 38.2386 3 41C3 43.7614 5.23858 46 8 46Z" stroke="#272E35" stroke-width="3" stroke-miterlimit="10" stroke-linecap="round" stroke-linejoin="round"/>
<path d="M24 46C26.7614 46 29 43.7614 29 41C29 38.2386 26.7614 36 24 36C21.2386 36 19 38.2386 19 41C19 43.7614 21.2386 46 24 46Z" stroke="#272E35" stroke-width="3" stroke-miterlimit="10" stroke-linecap="round" stroke-linejoin="round"/>
<path d="M40 46C42.7614 46 45 43.7614 45 41C45 38.2386 42.7614 36 40 36C37.2386 36 35 38.2386 35 41C35 43.7614 37.2386 46 40 46Z" stroke="#272E35" stroke-width="3" stroke-miterlimit="10" stroke-linecap="round" stroke-linejoin="round"/>
</svg>
