<svg width="16" height="16" viewBox="0 0 16 16" fill="none" xmlns="http://www.w3.org/2000/svg">
<g clip-path="url(#clip0_1799_9910)">
<path d="M16 8.04764C16.0003 6.51873 15.5625 5.02174 14.7385 3.73392C13.9144 2.44611 12.7385 1.4214 11.3501 0.781148C9.96173 0.140891 8.41893 -0.0881041 6.90442 0.121276C5.38991 0.330657 3.96712 0.969643 2.80451 1.96258C1.6419 2.95551 0.788165 4.2608 0.344396 5.72389C-0.0993733 7.18699 -0.114591 8.74661 0.300544 10.2181C0.71568 11.6896 1.54378 13.0113 2.68679 14.0267C3.82981 15.0421 5.23986 15.7088 6.75 15.9476V10.3596H4.719V8.04764H6.75V6.28464C6.70627 5.87309 6.7536 5.45696 6.88863 5.06574C7.02366 4.67452 7.24309 4.31778 7.53136 4.02083C7.81964 3.72387 8.1697 3.49395 8.55674 3.34737C8.94379 3.20079 9.35833 3.14114 9.771 3.17264C10.371 3.18053 10.9696 3.23267 11.562 3.32864V5.29964H10.554C10.3823 5.27719 10.2077 5.29363 10.0432 5.34776C9.87874 5.40188 9.72853 5.49231 9.6037 5.61233C9.47887 5.73236 9.38263 5.87891 9.3221 6.04116C9.26157 6.20341 9.23829 6.37719 9.254 6.54964V8.04964H11.473L11.118 10.3616H9.25V15.9526C11.1322 15.6549 12.8464 14.695 14.0838 13.2458C15.3213 11.7966 16.0008 9.95329 16 8.04764Z" fill="#6E757C"/>
</g>
<defs>
<clipPath id="clip0_1799_9910">
<rect width="16" height="16" fill="white"/>
</clipPath>
</defs>
</svg>
