<svg width="40" height="40" viewBox="0 0 40 40" fill="none" xmlns="http://www.w3.org/2000/svg">
<path d="M9.58244 36.888C6.54188 31.9262 4.78906 26.0899 4.78906 19.8442C4.78906 13.9728 6.37928 8.31608 9.09087 3.55469" stroke="#272E35" stroke-width="3" stroke-miterlimit="10" stroke-linecap="round" stroke-linejoin="round"/>
<path d="M2.5 5.62213L9.08992 3.55469L11.1533 10.253" stroke="#272E35" stroke-width="3" stroke-miterlimit="10" stroke-linecap="round" stroke-linejoin="round"/>
<path d="M24.4473 27.4292L28.7389 29.9948" stroke="#272E35" stroke-width="3" stroke-miterlimit="10" stroke-linecap="round" stroke-linejoin="round"/>
<path d="M38.3333 16.9828L35.1786 14.1764C33.8121 12.9607 31.7212 13.0732 30.493 14.4286L24.1511 21.4273L16.2832 16.7237C15.0981 16.0152 13.5631 16.4016 12.8546 17.5867V17.5867C12.1461 18.7718 12.5325 20.3068 13.7176 21.0153L24.4466 27.4292L22.7362 30.2903C22.2639 31.0804 22.5214 32.1037 23.3115 32.576L29.0336 35.9968C31.5371 37.4934 35.5079 35.0128 38.3243 36.6965" stroke="#272E35" stroke-width="3" stroke-miterlimit="10" stroke-linecap="round" stroke-linejoin="round"/>
</svg>
