<svg width="48" height="48" viewBox="0 0 48 48" fill="none" xmlns="http://www.w3.org/2000/svg">
<g clip-path="url(#clip0_903_20466)">
<path d="M20.354 14.697L11.541 5.88403" stroke="#272E35" stroke-width="3" stroke-miterlimit="10" stroke-linecap="round" stroke-linejoin="round"/>
<path d="M5.88281 11.541L14.6968 20.354" stroke="#272E35" stroke-width="3" stroke-miterlimit="10" stroke-linecap="round" stroke-linejoin="round"/>
<path d="M33.3027 20.354L42.1157 11.541" stroke="#272E35" stroke-width="3" stroke-miterlimit="10" stroke-linecap="round" stroke-linejoin="round"/>
<path d="M36.4575 5.88403L27.6445 14.698" stroke="#272E35" stroke-width="3" stroke-miterlimit="10" stroke-linecap="round" stroke-linejoin="round"/>
<path d="M27.6445 33.303L36.4575 42.116" stroke="#272E35" stroke-width="3" stroke-miterlimit="10" stroke-linecap="round" stroke-linejoin="round"/>
<path d="M42.1148 36.459L33.3008 27.646" stroke="#272E35" stroke-width="3" stroke-miterlimit="10" stroke-linecap="round" stroke-linejoin="round"/>
<path d="M14.6958 27.646L5.88281 36.459" stroke="#272E35" stroke-width="3" stroke-miterlimit="10" stroke-linecap="round" stroke-linejoin="round"/>
<path d="M11.541 42.116L20.354 33.302" stroke="#272E35" stroke-width="3" stroke-miterlimit="10" stroke-linecap="round" stroke-linejoin="round"/>
<path d="M39.5553 39.5562C48.1468 30.9647 48.1468 17.0353 39.5553 8.4438C30.9639 -0.147651 17.0344 -0.147651 8.44292 8.4438C-0.148534 17.0353 -0.148534 30.9647 8.44292 39.5562C17.0344 48.1477 30.9639 48.1477 39.5553 39.5562Z" stroke="#272E35" stroke-width="3" stroke-miterlimit="10" stroke-linecap="round" stroke-linejoin="round"/>
<path d="M31.0704 31.071C34.9756 27.1658 34.9756 20.8342 31.0704 16.929C27.1652 13.0238 20.8336 13.0238 16.9284 16.929C13.0232 20.8342 13.0232 27.1658 16.9284 31.071C20.8336 34.9762 27.1652 34.9762 31.0704 31.071Z" stroke="#272E35" stroke-width="3" stroke-miterlimit="10" stroke-linecap="round" stroke-linejoin="round"/>
</g>
<defs>
<clipPath id="clip0_903_20466">
<rect width="48" height="48" fill="white"/>
</clipPath>
</defs>
</svg>
