<svg width="48" height="48" viewBox="0 0 48 48" fill="none" xmlns="http://www.w3.org/2000/svg">
<path d="M9.99023 37.8511L24.0002 45.9391L38.0102 37.8511" stroke="#272E35" stroke-width="3" stroke-miterlimit="10" stroke-linecap="round" stroke-linejoin="round"/>
<path d="M19.01 4.94189L5 13.0299V29.2069" stroke="#272E35" stroke-width="3" stroke-miterlimit="10" stroke-linecap="round" stroke-linejoin="round"/>
<path d="M43.0002 29.2079V13.0299L28.9902 4.94189" stroke="#272E35" stroke-width="3" stroke-miterlimit="10" stroke-linecap="round" stroke-linejoin="round"/>
<path d="M29 5V12C29 13.657 26.761 15 24 15C21.239 15 19 13.657 19 12V5" stroke="#272E35" stroke-width="3" stroke-miterlimit="10" stroke-linecap="round" stroke-linejoin="round"/>
<path d="M24 8C26.7614 8 29 6.65685 29 5C29 3.34315 26.7614 2 24 2C21.2386 2 19 3.34315 19 5C19 6.65685 21.2386 8 24 8Z" stroke="#272E35" stroke-width="3" stroke-miterlimit="10" stroke-linecap="round" stroke-linejoin="round"/>
<path d="M5 13.03L24 24L43 13.03" stroke="#272E35" stroke-width="3" stroke-miterlimit="10" stroke-linecap="round" stroke-linejoin="round"/>
<path d="M42.9554 29.1699L36.8934 25.6699C35.4584 24.8409 33.1764 26.1089 31.7934 28.4999C30.4104 30.8909 30.4564 33.4999 31.8934 34.3299L37.9554 37.8299" stroke="#272E35" stroke-width="3" stroke-miterlimit="10" stroke-linecap="round" stroke-linejoin="round"/>
<path d="M42.9555 29.1699C41.5215 28.3409 39.2385 29.6089 37.8555 31.9999C36.4725 34.3909 36.5195 36.9999 37.9555 37.8299C39.3915 38.6599 41.6735 37.3919 43.0555 34.9999C44.4375 32.6079 44.3905 29.9999 42.9555 29.1699Z" stroke="#272E35" stroke-width="3" stroke-miterlimit="10" stroke-linecap="round" stroke-linejoin="round"/>
<path d="M24 24V45.939" stroke="#272E35" stroke-width="3" stroke-miterlimit="10" stroke-linecap="round" stroke-linejoin="round"/>
<path d="M10.0449 37.8299L16.1079 34.3299C17.5419 33.5019 17.5859 30.8909 16.2079 28.4999C14.8299 26.1089 12.5439 24.8409 11.1079 25.6699L5.04492 29.1699" stroke="#272E35" stroke-width="3" stroke-miterlimit="10" stroke-linecap="round" stroke-linejoin="round"/>
<path d="M10.1438 32C8.76379 29.608 6.48079 28.341 5.04379 29.17C3.60679 29.999 3.56579 32.608 4.94379 35C6.32179 37.392 8.60779 38.659 10.0438 37.83C11.4798 37.001 11.5248 34.391 10.1438 32Z" stroke="#272E35" stroke-width="3" stroke-miterlimit="10" stroke-linecap="round" stroke-linejoin="round"/>
</svg>
