<svg width="40" height="40" viewBox="0 0 40 40" fill="none" xmlns="http://www.w3.org/2000/svg">
<path d="M15.832 13.3335L26.6654 20.0002L15.832 26.6668V13.3335Z" stroke="#272E35" stroke-width="3" stroke-miterlimit="10" stroke-linecap="round" stroke-linejoin="round"/>
<path d="M4.99935 5H34.9993C35.8834 5 36.7312 5.35119 37.3564 5.97631C37.9815 6.60143 38.3327 7.44928 38.3327 8.33333V31.6667C38.3327 32.5507 37.9815 33.3986 37.3564 34.0237C36.7312 34.6488 35.8834 35 34.9993 35H4.99935C4.11529 35 3.26745 34.6488 2.64233 34.0237C2.01721 33.3986 1.66602 32.5507 1.66602 31.6667V8.33333C1.66602 7.44928 2.01721 6.60143 2.64233 5.97631C3.26745 5.35119 4.11529 5 4.99935 5V5Z" stroke="#272E35" stroke-width="3" stroke-miterlimit="10" stroke-linecap="round" stroke-linejoin="round"/>
</svg>
