<svg width="32" height="32" viewBox="0 0 32 32" fill="none" xmlns="http://www.w3.org/2000/svg">
<g clip-path="url(#clip0_966_3996)">
<path d="M2 16C0.896 16 0 16.896 0 18V28C0 29.104 0.896 30 2 30C3.104 30 4 29.104 4 28V18C4 16.896 3.104 16 2 16Z" fill="#272E35"/>
<path d="M30 16C28.896 16 28 16.896 28 18V28C28 29.104 28.896 30 30 30C31.104 30 32 29.104 32 28V18C32 16.896 31.104 16 30 16Z" fill="#272E35"/>
<path d="M26 16H6V32H26V16Z" fill="#272E35"/>
<path d="M6 14.0001H26C26 10.8901 24.552 8.1481 22.326 6.3141L24.832 2.5541C25.138 2.0961 25.014 1.4741 24.554 1.1681C24.092 0.862097 23.472 0.984097 23.168 1.4461L20.662 5.2041C19.264 4.4601 17.694 4.0001 16 4.0001C14.306 4.0001 12.736 4.4601 11.338 5.2041L8.832 1.4461C8.526 0.986097 7.906 0.862097 7.446 1.1681C6.986 1.4741 6.862 2.0961 7.168 2.5541L9.674 6.3141C7.448 8.1481 6 10.8901 6 14.0001Z" fill="#272E35"/>
</g>
<defs>
<clipPath id="clip0_966_3996">
<rect width="32" height="32" fill="white"/>
</clipPath>
</defs>
</svg>
