<svg width="33" height="32" viewBox="0 0 33 32" fill="none" xmlns="http://www.w3.org/2000/svg">
<path d="M16.4423 4.6058L17.3328 3.03198C17.8826 2.04834 19.1085 1.71671 20.0705 2.27879C21.0326 2.84087 21.3569 4.09431 20.8072 5.07795L12.2258 20.2653H18.4323C20.4443 20.2653 21.5713 22.6823 20.6972 24.3573H2.50103C1.39057 24.3573 0.5 23.4467 0.5 22.3113C0.5 21.1759 1.39057 20.2653 2.50103 20.2653H7.60256L14.1334 8.69211L12.0939 5.07233C11.5441 4.08869 11.8685 2.84649 12.8305 2.27317C13.7926 1.71109 15.0075 2.04272 15.5682 3.02636L16.4423 4.6058ZM8.72402 26.465L6.79995 29.8769C6.25021 30.8605 5.02431 31.1921 4.06227 30.6301C3.10024 30.068 2.7759 28.8145 3.32563 27.8309L4.75494 25.3015C6.37116 24.7901 7.68502 25.1835 8.72402 26.465ZM25.293 20.2766H30.499C31.6094 20.2766 32.5 21.1871 32.5 22.3225C32.5 23.4579 31.6094 24.3685 30.499 24.3685H27.6074L29.5589 27.8309C30.1087 28.8145 29.7843 30.0567 28.8223 30.6301C27.8602 31.1921 26.6453 30.8605 26.0846 29.8769C22.7972 24.0481 20.3289 19.6864 18.6907 16.7804C17.014 13.8239 18.2124 10.8561 19.3943 9.85C20.7082 12.1545 22.6708 15.6338 25.293 20.2766Z" fill="#272E35"/>
</svg>
