<svg width="32" height="32" viewBox="0 0 32 32" fill="none" xmlns="http://www.w3.org/2000/svg">
<path d="M24.7149 16.9936C24.7309 15.7691 25.0563 14.5685 25.6607 13.5035C26.2652 12.4385 27.1292 11.5436 28.1723 10.9021C27.5096 9.95548 26.6353 9.17639 25.6189 8.62667C24.6026 8.07695 23.472 7.77173 22.317 7.73523C19.8517 7.47695 17.4626 9.21006 16.2064 9.21006C14.9268 9.21006 12.9926 7.76018 10.9117 7.8042C9.56497 7.84767 8.25247 8.23927 7.10211 8.94086C5.95174 9.64245 5.00275 10.6301 4.34761 11.8075C1.50948 16.7207 3.62707 23.9422 6.34487 27.9147C7.70523 29.8591 9.29452 32.031 11.3754 31.9547C13.4108 31.8696 14.171 30.656 16.629 30.656C19.0622 30.656 19.7754 31.9547 21.8973 31.9063C24.0824 31.8696 25.4575 29.9516 26.7694 27.9881C27.7475 26.6026 28.5003 25.0712 29 23.4506C27.7306 22.914 26.6474 22.0155 25.8854 20.8672C25.1233 19.719 24.7163 18.3718 24.7149 16.9936Z" fill="#272E35"/>
<path d="M20.7059 5.12155C21.8969 3.69228 22.4839 1.85505 22.3422 0C20.5224 0.191033 18.8415 1.06084 17.6344 2.43604C17.0445 3.10736 16.5925 3.88835 16.3045 4.73439C16.0164 5.58043 15.8979 6.47494 15.9556 7.36681C16.8657 7.37619 17.766 7.17901 18.5888 6.7901C19.4116 6.40119 20.1355 5.83069 20.7059 5.12155Z" fill="#272E35"/>
</svg>
