<svg width="33" height="32" viewBox="0 0 33 32" fill="none" xmlns="http://www.w3.org/2000/svg">
<g clip-path="url(#clip0_966_3998)">
<path d="M15.1746 2.51131C20.932 1.63034 26.7003 0.800548 32.4687 0C32.4723 5.05552 32.4687 10.1074 32.4723 15.1629C26.7076 15.1848 20.943 15.2726 15.1746 15.2908C15.171 11.0286 15.171 6.76993 15.1746 2.51131ZM0.552734 4.55106C4.88812 3.88211 9.24216 3.30455 13.5958 2.75988C13.5995 6.95271 13.5995 11.1419 13.6031 15.3347C9.25312 15.331 4.90275 15.3968 0.552734 15.3859V4.55106ZM0.552734 16.7055C4.89946 16.6909 9.24545 16.7603 13.5918 16.753C13.5918 20.9568 13.6028 25.1606 13.5958 29.3644C9.25312 28.7207 4.90275 28.1581 0.552734 27.5696V16.7055ZM15.149 16.8737H32.4687C32.476 21.9146 32.4687 26.9555 32.4687 32C26.7113 31.1373 20.943 30.3368 15.1746 29.5549C15.1673 25.3288 15.1563 21.103 15.149 16.8737Z" fill="#272E35"/>
</g>
<defs>
<clipPath id="clip0_966_3998">
<rect width="32" height="32" fill="white" transform="translate(0.5)"/>
</clipPath>
</defs>
</svg>
